<?xml version="1.0" encoding="UTF-8"?>

<svg
    xmlns="http://www.w3.org/2000/svg"
    viewBox="0 0 24 24"
    fill="none"
>

    <path
        d="M9.5 4C7 3.5 5 5.5 5 8C5 8.5 5 9 5.2 9.5C3.8 10.5 3 12 3 13.8C3 16.1 4.8 18 7 18.3C7.8 20 9.5 21 11.5 21C13 21 14.5 20.5 15.5 19.5C17.5 19.8 19.5 18.3 19.5 16.2C19.5 15.6 19.4 15 19.1 14.5C20.2 13.5 21 12 21 10.5C21 8.2 19.2 6.3 17 6.2C16.3 4.5 14.7 3.5 13 3.5C11.7 3.5 10.5 3.8 9.5 4Z"
        stroke="currentColor"
        stroke-width="2"
        stroke-linecap="round"
        stroke-linejoin="round"
    />

    <path
        d="M8 10C9 10 9.5 10.5 10 11"
        stroke="currentColor"
        stroke-width="2"
        stroke-linecap="round"
    />

    <path
        d="M14 9C13 9.5 12.5 10 12.5 11"
        stroke="currentColor"
        stroke-width="2"
        stroke-linecap="round"
    />

    <path
        d="M9 15C10 14 11 14 12 15C13 14 14 14 15 15"
        stroke="currentColor"
        stroke-width="2"
        stroke-linecap="round"
    />

</svg>