<?xml version="1.0" encoding="UTF-8"?>

<svg
    xmlns="http://www.w3.org/2000/svg"
    viewBox="0 0 24 24"
    fill="none"
>

    <path
        d="M12 15.5C13.933 15.5 15.5 13.933 15.5 12C15.5 10.067 13.933 8.5 12 8.5C10.067 8.5 8.5 10.067 8.5 12C8.5 13.933 10.067 15.5 12 15.5Z"
        stroke="currentColor"
        stroke-width="2"
    />

    <path
        d="M19.4 15C19.5 14.7 19.6 14.3 19.6 14L21 12L19.6 10C19.6 9.7 19.5 9.3 19.4 9L19.8 6.6L17.2 5.2L15.3 6.2C14.9 6.1 14.5 6 14.2 5.9L12.8 4H10.2L8.8 5.9C8.5 6 8.1 6.1 7.7 6.2L5.8 5.2L3.2 6.6L3.6 9C3.5 9.3 3.4 9.7 3.4 10L2 12L3.4 14C3.4 14.3 3.5 14.7 3.6 15L3.2 17.4L5.8 18.8L7.7 17.8C8.1 17.9 8.5 18 8.8 18.1L10.2 20H12.8L14.2 18.1C14.5 18 14.9 17.9 15.3 17.8L17.2 18.8L19.8 17.4L19.4 15Z"
        stroke="currentColor"
        stroke-width="2"
        stroke-linejoin="round"
    />

</svg>